<svg height="512" viewBox="0 0 58 58" width="512" xmlns="http://www.w3.org/2000/svg"><g id="Page-1" fill="none" fill-rule="evenodd"><g id="014---Portait-Mode" fill-rule="nonzero"><path id="Shape" d="m43.171 25.15s1.079-1.64 2.158-1.09.54 5.47.54 5.47c-.3770676 2.2726509-1.737525 4.2632073-3.718 5.44h-26.281c-1.980475-1.1767927-3.3409324-3.1673491-3.718-5.44 0 0-.53-4.93.54-5.47s2.158 1.09 2.158 1.09z" fill="#f9c795"/><g fill="#e64c3c"><path id="Shape" d="m2 11c-1.1045695 0-2-.8954305-2-2v-6c0-1.65685425 1.34314575-3 3-3h6c1.1045695 0 2 .8954305 2 2s-.8954305 2-2 2h-5v5c0 1.1045695-.8954305 2-2 2z"/><path id="Shape" d="m56 11c-1.1045695 0-2-.8954305-2-2v-5h-5c-1.1045695 0-2-.8954305-2-2s.8954305-2 2-2h6c1.6568542 0 3 1.34314575 3 3v6c0 1.1045695-.8954305 2-2 2z"/><path id="Shape" d="m9 58h-6c-1.65685425 0-3-1.3431458-3-3v-6c0-1.1045695.8954305-2 2-2s2 .8954305 2 2v5h5c1.1045695 0 2 .8954305 2 2s-.8954305 2-2 2z"/><path id="Shape" d="m55 58h-6c-1.1045695 0-2-.8954305-2-2s.8954305-2 2-2h5v-5c0-1.1045695.8954305-2 2-2s2 .8954305 2 2v6c0 1.6568542-1.3431458 3-3 3z"/></g><path id="Shape" d="m43.107 17.5c-.507-10.952-13.09-11.5-13.09-11.5h-2.017s-12.586.548-13.09 11.5 1.007 12.048 1.007 15.881-1.003 7.119 3.025 10.952 4.027 7.667 8.058 7.667h4.027c4.028 0 4.028-3.833 8.055-7.667s3.018-7.119 3.018-10.952 1.51-4.929 1.007-15.881z" fill="#fdd7ad"/><path id="Shape" d="m34 27h-3v-3c0-1.1045695-.8954305-2-2-2s-2 .8954305-2 2v3h-3c-1.1045695 0-2 .8954305-2 2s.8954305 2 2 2h3v3c0 1.1045695.8954305 2 2 2s2-.8954305 2-2v-3h3c1.1045695 0 2-.8954305 2-2s-.8954305-2-2-2z" fill="#e64c3c"/></g></g></svg>